<?xml version='1.0' encoding='utf-8'?>
<svg xmlns="http://www.w3.org/2000/svg" width="370mm" height="80mm" version="1.1" style="shape-rendering:geometricPrecision; text-rendering:geometricPrecision; image-rendering:optimizeQuality; fill-rule:evenodd; clip-rule:evenodd" viewBox="0 0 37000 8000"> <defs> <style type="text/css">  .fil0 {fill:black} .fil3 {fill:#CCCC33} .fil4 {fill:yellow} .fil6 {fill:#FFFF61} .fil2 {fill:#FFFF66} .fil5 {fill:#FFFF99} .fil1 {fill:white}  </style> </defs> <g id="Warstwa_x0020_1"> <metadata id="CorelCorpID_0Corel-Layer"/> <path class="fil0" d="M27175 2007l-563 0 0 317c-26,-2 -52,-2 -78,-2 -596,0 -1078,341 -1078,762 0,17 1,35 2,53l-156 0 0 252 -413 0 0 -1906 -1235 0 0 2049c-70,-12 -144,-18 -220,-18 -266,0 -506,77 -679,201l0 -611 -1115 0 -35 -1784 -254 0 -49 1784 -830 0 -53 -2327 -303 0 -89 2839 -432 -174 -884 359 0 210 -390 0 0 -567 -968 0 0 -281 -524 -209 0 -455 -594 -395 -386 251 0 -682 -1058 0 0 1273 -962 0 0 1048 -297 0 0 -1319 -215 0c-50,-273 -368,-483 -753,-483 -9,0 -18,0 -26,0l0 -325 -1540 0 0 949 -1043 0 0 921 -390 -193 -1099 543 5 9 0 677 -344 -123 -311 108 0 -354 -317 -117 -43 -1765 -248 0 -54 1638 -199 -74 -425 118 0 -665 -2008 0 0 1243 -689 -486 -769 542 2 4 -194 0 0 565 -443 -1 -278 425 128 0 1 291 -512 1 -1 110 -352 189 -2 -2 0 -762 -487 0 0 1213 -2 0 0 498 1580 0 0 -1 33643 0 0 -227 -1 0 0 -2076 -66 -26 -624 267 0 722 -271 -215 -306 283 0 -176 0 -540 -396 0 0 -307 -541 0 0 -783 -666 -243 -625 243 0 379 -594 0 0 -942 -697 0 0 -581 237 2 -2036 -828 -229 113 0 -1204 -464 0 0 -656 -1234 0 0 656 -459 0 0 778z"/> <g id="_237813736"> <g> <g> <rect class="fil1" x="10144" y="3013" width="180" height="270"/> <rect class="fil1" x="10142" y="3426" width="180" height="270"/> <rect class="fil1" x="10142" y="3809" width="180" height="270"/> <rect class="fil1" x="10140" y="4221" width="180" height="270"/> <rect class="fil2" x="10451" y="3013" width="180" height="270"/> <rect class="fil2" x="10449" y="3426" width="180" height="270"/> <path class="fil1" d="M9691 4391l0 0c0,-26 -44,-48 -97,-48 -53,0 -96,22 -96,48l0 0 0 206 193 0 0 -206z"/> <path class="fil3" d="M9696 4753l0 0c0,-26 -43,-47 -97,-47 -53,0 -96,21 -96,47l0 0 0 207 193 0 0 -207z"/> <path class="fil1" d="M9691 5114l0 0c0,-26 -44,-47 -97,-47 -53,0 -96,21 -96,47l0 0 0 207 193 0 0 -207z"/> <path class="fil1" d="M16544 2515l0 0c0,-20 -33,-36 -72,-36 -40,0 -73,16 -73,36l0 0 0 154 145 0 0 -154z"/> <path class="fil1" d="M16548 2786l0 0c0,-20 -33,-35 -73,-35 -39,0 -72,15 -72,35l0 0 0 155 145 0 0 -155z"/> <path class="fil4" d="M16544 3056l0 0c0,-19 -33,-35 -72,-35 -40,0 -73,16 -73,35l0 0 0 155 145 0 0 -155z"/> <path class="fil1" d="M16301 2517l0 0c0,-19 -32,-35 -72,-35 -40,0 -72,16 -72,35l0 0 0 155 144 0 0 -155z"/> <path class="fil4" d="M16305 2789l0 0c0,-20 -32,-35 -72,-35 -40,0 -72,15 -72,35l0 0 0 155 144 0 0 -155z"/> <path class="fil1" d="M16301 3059l0 0c0,-19 -32,-35 -72,-35 -40,0 -72,16 -72,35l0 0 0 155 144 0 0 -155z"/> <rect class="fil1" x="11242" y="2313" width="180" height="195"/> <rect class="fil1" x="11241" y="2590" width="180" height="195"/> <rect class="fil1" x="11551" y="2016" width="180" height="195"/> <rect class="fil1" x="11548" y="2313" width="180" height="195"/> <rect class="fil1" x="11554" y="2584" width="180" height="195"/> <rect class="fil1" x="11551" y="2882" width="180" height="195"/> <rect class="fil1" x="11834" y="2015" width="180" height="195"/> <rect class="fil1" x="11832" y="2313" width="180" height="195"/> <path class="fil1" d="M9044 4389l0 0c0,-26 -43,-47 -96,-47 -54,0 -97,21 -97,47l0 0 0 207 193 0 0 -207z"/> <path class="fil1" d="M9049 4751l0 0c0,-26 -43,-47 -96,-47 -54,0 -97,21 -97,47l0 0 0 207 193 0 0 -207z"/> <path class="fil1" d="M9044 5112l0 0c0,-26 -43,-47 -96,-47 -54,0 -97,21 -97,47l0 0 0 207 193 0 0 -207z"/> <path class="fil1" d="M14668 4797l0 0c0,-26 -43,-47 -97,-47 -53,0 -96,21 -96,47l0 0 0 206 193 0 0 -206z"/> <path class="fil1" d="M14673 5159l0 0c0,-26 -43,-47 -96,-47 -54,0 -97,21 -97,47l0 0 0 207 193 0 0 -207z"/> <path class="fil1" d="M14668 5520l0 0c0,-26 -43,-47 -97,-47 -53,0 -96,21 -96,47l0 0 0 207 193 0 0 -207z"/> <path class="fil1" d="M12882 5665l0 0c0,-26 -43,-47 -97,-47 -53,0 -96,21 -96,47l0 0 0 207 193 0 0 -207z"/> <path class="fil4" d="M12877 6026l0 0c0,-26 -44,-47 -97,-47 -53,0 -97,21 -97,47l0 0 0 207 194 0 0 -207z"/> <rect class="fil4" x="14936" y="1790" width="180" height="195"/> <rect class="fil1" x="14934" y="2088" width="180" height="195"/> <rect class="fil1" x="14932" y="2661" width="180" height="195"/> <rect class="fil1" x="15243" y="1790" width="180" height="195"/> <rect class="fil1" x="15246" y="2358" width="180" height="195"/> <rect class="fil4" x="15244" y="2656" width="180" height="195"/> <rect class="fil1" x="15527" y="1790" width="180" height="195"/> <rect class="fil1" x="15524" y="2087" width="180" height="195"/> <rect class="fil1" x="14558" y="3420" width="180" height="195"/> <rect class="fil1" x="15148" y="3420" width="180" height="195"/> <path class="fil1" d="M12529 5311l0 0c0,-26 -43,-47 -97,-47 -53,0 -96,21 -96,47l0 0 0 206 193 0 0 -206z"/> <path class="fil4" d="M12534 5673l0 0c0,-26 -43,-47 -96,-47 -54,0 -97,21 -97,47l0 0 0 207 193 0 0 -207z"/> <path class="fil1" d="M12529 6034l0 0c0,-26 -43,-47 -97,-47 -53,0 -96,21 -96,47l0 0 0 207 193 0 0 -207z"/> <path class="fil1" d="M12196 5300l0 0c0,-26 -44,-47 -97,-47 -53,0 -96,21 -96,47l0 0 0 207 193 0 0 -207z"/> <path class="fil1" d="M12196 6024l0 0c0,-26 -44,-47 -97,-47 -53,0 -96,21 -96,47l0 0 0 206 193 0 0 -206z"/> </g> <g> <rect class="fil1" x="4724" y="3768" width="180" height="195"/> <rect class="fil1" x="4722" y="4066" width="180" height="195"/> <rect class="fil5" x="4722" y="4342" width="180" height="195"/> <rect class="fil5" x="4720" y="4640" width="180" height="195"/> <rect class="fil4" x="5884" y="4899" width="180" height="195"/> <rect class="fil4" x="5881" y="5197" width="180" height="195"/> <rect class="fil1" x="5034" y="4337" width="180" height="195"/> <rect class="fil1" x="5032" y="4635" width="180" height="195"/> <rect class="fil1" x="5312" y="4066" width="180" height="195"/> <rect class="fil1" x="5309" y="4330" width="180" height="195"/> <rect class="fil1" x="5307" y="4904" width="180" height="195"/> <rect class="fil1" x="5305" y="5202" width="180" height="195"/> <rect class="fil4" x="5616" y="4330" width="180" height="195"/> <rect class="fil2" x="5614" y="4628" width="180" height="195"/> <rect class="fil4" x="5619" y="4899" width="180" height="195"/> <rect class="fil4" x="5617" y="5196" width="180" height="195"/> <rect class="fil4" x="5900" y="4330" width="180" height="195"/> <rect class="fil4" x="5898" y="4627" width="180" height="195"/> <path class="fil1" d="M7368 4739l0 0c0,-21 -34,-37 -76,-37 -42,0 -75,16 -75,37l0 0 0 162 151 0 0 -162z"/> <path class="fil1" d="M7372 5024l0 0c0,-21 -34,-37 -75,-37 -42,0 -76,16 -76,37l0 0 0 162 151 0 0 -162z"/> <path class="fil1" d="M7368 5307l0 0c0,-20 -34,-37 -76,-37 -41,0 -75,17 -75,37l0 0 0 163 151 0 0 -163z"/> <rect class="fil1" x="8055" y="5408" width="112" height="121"/> <rect class="fil1" x="8054" y="5593" width="112" height="121"/> <rect class="fil1" x="8054" y="5764" width="112" height="121"/> <rect class="fil1" x="8052" y="5949" width="112" height="121"/> <path class="fil1" d="M3833 4865l-1 0c0,-26 -43,-47 -96,-47 -53,0 -97,21 -97,47l0 0 0 207 194 0 0 -207z"/> <path class="fil4" d="M3838 5227l0 0c0,-26 -43,-47 -97,-47 -53,0 -96,21 -96,47l0 0 0 207 193 0 0 -207z"/> <path class="fil1" d="M3833 5588l0 0c0,-26 -44,-47 -97,-47 -53,0 -97,21 -97,47l0 0 0 207 194 0 0 -207z"/> <rect class="fil1" x="1958" y="6362" width="180" height="195"/> <rect class="fil1" x="1956" y="6660" width="180" height="195"/> <rect class="fil1" x="1163" y="5823" width="112" height="121"/> <rect class="fil4" x="1163" y="5995" width="112" height="121"/> <rect class="fil1" x="1162" y="6180" width="112" height="121"/> </g> </g> <g> <g> <path class="fil1" d="M33165 4510l0 0c0,-26 -43,-47 -97,-47 -53,0 -96,21 -96,47l0 0 0 207 193 0 0 -207z"/> <path class="fil2" d="M33170 4873l0 0c0,-26 -43,-47 -96,-47 -54,0 -97,21 -97,47l0 0 0 207 193 0 0 -207z"/> <path class="fil2" d="M33165 5234l0 0c0,-26 -43,-47 -97,-47 -53,0 -96,21 -96,47l0 0 0 207 193 0 0 -207z"/> <path class="fil2" d="M33690 5138l0 0c0,-26 -43,-47 -96,-47 -54,0 -97,21 -97,47l0 0 0 206 193 0 0 -206z"/> <path class="fil2" d="M33690 5861l0 0c0,-26 -43,-47 -96,-47 -54,0 -97,21 -97,47l0 0 0 207 193 0 0 -207z"/> <g> <g> <rect class="fil1" x="23321" y="4336" width="180" height="195"/> <rect class="fil1" x="23633" y="4331" width="180" height="195"/> <rect class="fil1" x="23908" y="4324" width="180" height="195"/> <rect class="fil1" x="24498" y="4324" width="180" height="195"/> <rect class="fil1" x="23806" y="1642" width="123" height="133"/> <rect class="fil1" x="23804" y="1845" width="123" height="133"/> <rect class="fil1" x="23804" y="2033" width="123" height="133"/> <rect class="fil1" x="23803" y="2236" width="123" height="133"/> <rect class="fil1" x="24007" y="1846" width="123" height="133"/> <rect class="fil1" x="24006" y="2048" width="123" height="133"/> <rect class="fil1" x="24006" y="2237" width="123" height="133"/> <rect class="fil1" x="24004" y="2439" width="123" height="133"/> <rect class="fil1" x="21983" y="5453" width="185" height="281"/> <rect class="fil1" x="22591" y="5453" width="185" height="281"/> <g> <rect class="fil1" x="20573" y="3295" width="180" height="195"/> <rect class="fil1" x="20571" y="3593" width="180" height="195"/> <rect class="fil1" x="20571" y="3869" width="180" height="195"/> <rect class="fil2" x="20568" y="4166" width="180" height="195"/> <rect class="fil1" x="20880" y="3295" width="180" height="195"/> <rect class="fil2" x="20878" y="3593" width="180" height="195"/> <rect class="fil1" x="20883" y="3864" width="180" height="195"/> <rect class="fil1" x="20881" y="4161" width="180" height="195"/> <rect class="fil1" x="21163" y="3295" width="180" height="195"/> <rect class="fil1" x="21161" y="3592" width="180" height="195"/> <path class="fil4" d="M19867 4221l0 0c0,-25 -42,-45 -93,-45 -51,0 -93,20 -93,45l0 0 0 199 186 0 0 -199z"/> <path class="fil1" d="M19872 4570l0 0c0,-25 -41,-45 -93,-45 -51,0 -93,20 -93,45l0 0 0 199 186 0 0 -199z"/> <path class="fil4" d="M19867 4918l0 0c0,-25 -42,-45 -93,-45 -51,0 -93,20 -93,45l0 0 0 199 186 0 0 -199z"/> <path class="fil4" d="M19555 4225l0 0c0,-25 -42,-45 -93,-45 -51,0 -93,20 -93,45l0 0 0 199 186 0 0 -199z"/> <path class="fil4" d="M19560 4574l0 0c0,-25 -41,-45 -93,-45 -51,0 -93,20 -93,45l0 0 0 199 186 0 0 -199z"/> <path class="fil4" d="M19555 4922l0 0c0,-25 -41,-46 -93,-46 -51,0 -93,21 -93,46l0 0 0 199 186 0 0 -199z"/> <rect class="fil1" x="16432" y="3960" width="180" height="195"/> <rect class="fil1" x="16739" y="3960" width="180" height="195"/> <rect class="fil1" x="17023" y="3960" width="180" height="195"/> <rect class="fil1" x="22116" y="3309" width="180" height="195"/> <rect class="fil1" x="22423" y="3309" width="180" height="195"/> </g> </g> <g> <rect class="fil1" x="27332" y="1377" width="180" height="195"/> <rect class="fil1" x="27330" y="1674" width="180" height="195"/> <rect class="fil1" x="27329" y="1951" width="180" height="195"/> <rect class="fil1" x="27327" y="2248" width="180" height="195"/> <rect class="fil1" x="27642" y="1945" width="180" height="195"/> <rect class="fil1" x="27639" y="2243" width="180" height="195"/> <rect class="fil1" x="27922" y="1376" width="180" height="195"/> <rect class="fil1" x="27920" y="1674" width="180" height="195"/> <rect class="fil1" x="28995" y="1373" width="180" height="195"/> <rect class="fil1" x="28993" y="1671" width="180" height="195"/> <rect class="fil1" x="28993" y="1947" width="180" height="195"/> <rect class="fil1" x="28991" y="2245" width="180" height="195"/> <rect class="fil1" x="28268" y="689" width="180" height="195"/> <rect class="fil1" x="28266" y="986" width="180" height="195"/> <rect class="fil1" x="28575" y="689" width="180" height="195"/> <rect class="fil1" x="28573" y="986" width="180" height="195"/> <rect class="fil6" x="29312" y="3549" width="180" height="195"/> <rect class="fil6" x="29310" y="3846" width="180" height="195"/> <rect class="fil6" x="29619" y="3548" width="180" height="195"/> <rect class="fil6" x="29617" y="3846" width="180" height="195"/> <rect class="fil6" x="29903" y="3548" width="180" height="195"/> <rect class="fil6" x="29900" y="3846" width="180" height="195"/> <rect class="fil1" x="25911" y="3258" width="185" height="281"/> <rect class="fil1" x="25909" y="3688" width="185" height="281"/> <rect class="fil1" x="26227" y="3258" width="185" height="281"/> <rect class="fil1" x="26225" y="3688" width="185" height="281"/> <rect class="fil1" x="26519" y="3258" width="185" height="281"/> <rect class="fil1" x="26517" y="3687" width="185" height="281"/> <rect class="fil1" x="25909" y="3688" width="185" height="281"/> <rect class="fil1" x="26225" y="3688" width="185" height="281"/> <rect class="fil1" x="26517" y="3687" width="185" height="281"/> <path class="fil5" d="M26055 5575l0 0c0,-26 -44,-47 -97,-47 -53,0 -97,21 -97,47l0 0 0 207 194 0 0 -207z"/> <path class="fil5" d="M26060 5938l0 0c0,-26 -43,-47 -97,-47 -53,0 -96,21 -96,47l0 0 0 207 193 0 0 -207z"/> <path class="fil5" d="M26055 6299l0 0c0,-26 -44,-47 -97,-47 -53,0 -97,21 -97,47l0 0 0 206 194 0 0 -206z"/> <path class="fil1" d="M28589 4246l0 0c0,-26 -43,-47 -97,-47 -53,0 -96,21 -96,47l0 0 0 207 193 0 0 -207z"/> <path class="fil1" d="M28589 4970l0 0c0,-26 -43,-47 -97,-47 -53,0 -96,21 -96,47l0 0 0 207 193 0 0 -207z"/> <path class="fil5" d="M31764 4088l0 0c0,-26 -43,-47 -96,-47 -54,0 -97,21 -97,47l0 0 0 207 193 0 0 -207z"/> <path class="fil1" d="M31770 4451l0 0c0,-26 -44,-47 -97,-47 -53,0 -97,21 -97,47l0 0 0 207 194 0 0 -207z"/> <path class="fil1" d="M31764 4812l0 0c0,-26 -43,-47 -96,-47 -54,0 -97,21 -97,47l0 0 0 207 193 0 0 -207z"/> <rect class="fil1" x="26953" y="5264" width="112" height="121"/> <rect class="fil1" x="26952" y="5449" width="112" height="121"/> </g> </g> </g> <path class="fil1" d="M35932 5622l0 0c0,-26 -44,-47 -97,-47 -53,0 -96,21 -96,47l0 0 0 207 193 0 0 -207z"/> <path class="fil2" d="M35937 5984l0 0c0,-26 -43,-47 -97,-47 -53,0 -96,21 -96,47l0 0 0 207 193 0 0 -207z"/> </g> </g> </g> </svg>