<?xml version="1.0" encoding="utf-8"?>
<svg xmlns="http://www.w3.org/2000/svg" xmlns:xlink="http://www.w3.org/1999/xlink" version= "1.1" width="1920px" height="1300px" viewBox="-600 61 1920 1300">
<g id="layer1">
<g style="fill:rgb(0,174,199); fill-opacity:1.0; stroke-linejoin: miter">
<path d="M-600.001,59.66191L-600.26306,59.687836L-600.8171,1362.0581L1320.2627,1362.3119L1320.8167,59.941498L-600.001,59.66191 Z"/>
</g>
<g style="fill:rgb(255,0,0); fill-opacity:0.99607843; stroke-linejoin: miter">
<path d="M285.3314,812.5143L284.95538,821.6383Q282.2822,849.21173,269.31198,865.74365Q256.25204,882.26215,238.55411,879.1401Q221.66373,874.7761,211.53699,853.60236Q208.29227,846.75806,206.19168,838.6869L204.42621,830.38916Q202.97125,821.82477,202.9549,812.5143Q203.39658,783.94165,215.01865,764.9686Q226.64072,745.9957,244.14307,745.27466Q261.64548,745.9957,273.2676,764.9686Q284.88968,783.94165,285.3314,812.5143"/>
</g>
<g style="fill:rgb(83,93,102); fill-opacity:1.0; stroke-linejoin: miter">
<path d="M232.0741,729.339L232.07413,615.6243L205.34952,615.62573L205.34946,639.00916C126.96857,715.3977,49.607117,728.8248,4.9129944,728.8512L4.9128876,898.30493C49.430664,897.1563,126.914276,908.8196,205.34943,985.36395L205.34943,1008.7482L232.07404,1008.74994L232.074,895.0325C272.16208,888.75305,302.76144,854.01184,302.76144,812.18713C302.76285,770.3602,272.1623,735.6196,232.0741,729.339 Z M232.074,867.90643L232.0741,756.3334C257.3288,762.4782,276.0367,785.19556,276.0368,812.18726C276.0368,839.17896,257.33,861.89465,232.074,867.90643 Z"/>
</g>
<g style="fill:rgb(34,43,50); fill-opacity:1.0; stroke-linejoin: miter">
<path d="M-41.620735,720.4707L-5.40477,720.471L30.811172,720.4714Q30.811172,812.0256,30.811172,903.5797Q-5.40477,903.58014,-41.620735,903.5805Q-41.620735,812.0256,-41.620735,720.4707"/>
</g>
<g style="fill:rgb(0,0,0); fill-opacity:1.0; stroke-linejoin: miter">
<path d="M-128.90613,1041.8468L-86.218796,1041.8472L-43.53147,1041.8475Q-43.53147,1091.6962,-43.53147,1141.5448Q-86.218796,1141.5452,-128.90613,1141.5455Q-128.90613,1091.6962,-128.90613,1041.8468"/>
</g>
<g style="fill:rgb(34,43,50); fill-opacity:1.0; stroke-linejoin: miter">
<path d="M-22.07898,995.38513C-47.601013,953.56287,-51.742813,925.76733,-50.273155,904.5192L-21.81157,904.5203L-21.811508,717.4457L-142.07404,717.44727C-193.65265,717.446,-235.61067,759.4053,-235.61082,810.98254C-235.61078,857.7516,-201.13582,896.50244,-156.23834,903.31934L-114.947975,1040.9487C-110.9391,1054.4481,-101.85312,1065.4011,-89.425995,1071.9492C-81.80978,1076.0925,-73.39154,1078.2296,-64.83897,1078.23C-59.760704,1078.23,-54.549347,1077.4268,-49.47248,1075.9597C-34.10576,1071.15,-22.480545,1060.4602,-16.734589,1045.627C-10.721222,1029.5924,-12.592606,1010.7532,-22.07898,995.38513 Z"/>
</g>
<g style="fill:rgb(255,177,133); fill-opacity:1.0; stroke-linejoin: miter">
<path d="M-27.632881,959.34344L-25.62381,961.2083Q-9.263214,976.0775,-9.093216,984.88403Q-8.106323,994.655,-15.339951,1010.2518Q-9.671219,1034.6797,-13.529785,1048.5471Q-16.413132,1057.3118,-23.421768,1063.9851Q-27.66095,1068.8376,-45.044327,1080.6428Q-53.183372,1093.3643,-58.307495,1097.4001Q-64.27977,1102.2444,-68.345505,1103.6133Q-90.09339,1111.4008,-127.35672,1098.0236Q-165.76321,1085.4602,-245.78638,1048.6925L-243.6977,929.5623L-185.0035,929.6468L-159.35693,901.9613Q-114.98645,913.71985,-100.35156,912.8579Q-92.7863,912.64667,-86.86687,910.9754Q-60.527283,901.55096,-61.41336,902.58105Q-50.37204,900.6293,-45.780228,901.6172Q-32.904877,902.6488,-28.355087,915.38574Q-24.462387,924.08606,-27.632881,959.34344"/>
</g>
<g style="fill:rgb(255,190,133); fill-opacity:0.99607843; stroke-linejoin: miter">
<path d="M-6.382324,873.5088L-6.382416,873.5095L-6.382538,873.51025L-6.382324,873.5088"/>
</g>
<g style="fill:rgb(255,255,255); fill-opacity:1.0; stroke-linejoin: miter">
<path d="M-290.37347,929.69855L-250.29474,929.699L-210.216,929.69946Q-210.216,1006.17535,-210.216,1082.6514Q-250.29474,1082.6519,-290.37347,1082.6526Q-290.37347,1006.17554,-290.37347,929.69855"/>
</g>
<g style="fill:rgb(0,0,0); fill-opacity:1.0; stroke-linejoin: miter">
<path d="M-600.36084,912.40607L-428.9276,912.40643L-257.4944,912.4068Q-257.4944,1014.2382,-257.4944,1116.0696Q-428.9276,1116.0698,-600.36084,1116.0703Q-600.36084,1014.2382,-600.36084,912.40607"/>
</g>
<g style="fill:rgb(0,0,0); fill-opacity:1.0; stroke-linejoin: miter">
<path d="M210.69522,615.364L217.2002,615.3644L223.70517,615.36475Q223.70517,812.2897,223.70517,1009.21466Q217.2002,1009.215,210.69522,1009.2154Q210.69522,812.2897,210.69522,615.364"/>
</g>
<g style="fill:rgb(0,0,0); fill-opacity:1.0; stroke-linejoin: miter">
<path d="M229.50574,729.1564L230.9552,895.019Q248.55734,894.14075,263.54504,886.6522Q279.7854,877.86725,288.40146,867.6624Q297.89133,857.1475,303.2529,843.97217Q305.9336,837.3844,307.58237,830.13165L308.973,822.7125L309.63324,811.4265Q309.0999,795.73145,304.13007,782.4194Q301.64508,775.7633,298.05118,769.703L294.1798,763.7915Q290.0312,758.0293,284.77338,752.86255Q271.8767,741.5115,268.67755,740.4453Q262.92468,737.0587,256.65543,734.67566Q244.11954,729.9091,229.50574,729.1564 Z"/>
</g>
<g style="fill:rgb(0,0,0); fill-opacity:1.0; stroke-linejoin: miter">
<path d="M-146.70413,715.55945L-148.37296,906.5122Q-168.63777,905.50104,-185.89265,896.8797Q-204.58966,886.7658,-214.50905,875.01733Q-225.43445,862.9117,-231.60704,847.74335Q-234.69324,840.15906,-236.5914,831.8092L-238.19238,823.2678L-238.95251,810.2745Q-238.33852,792.20514,-232.61685,776.8794Q-229.75598,769.21655,-225.61841,762.23944L-221.16144,755.4337Q-216.38525,748.7998,-210.33209,742.8515Q-195.48453,729.7834,-191.80145,728.5559Q-185.17831,724.65704,-177.96071,721.91345Q-163.52852,716.4259,-146.70413,715.55945 Z"/>
</g>
<g style="fill:rgb(255,255,255); fill-opacity:1.0; stroke-linejoin: miter">
<path d="M1292.1434,590.51495L1287.6552,657.23267Q1255.7445,858.8591,1100.9152,979.74536Q945.0146,1100.5345,733.7476,1077.705Q532.12103,1045.7946,411.23465,890.9651Q372.50125,840.91724,347.42584,781.8986L326.35056,721.2229Q308.98264,658.597,308.78732,590.51544Q314.05972,381.5833,452.79654,242.84651Q591.5332,104.10971,800.4653,98.83725Q1009.39734,104.10958,1148.1343,242.84622Q1286.8712,381.5829,1292.1434,590.51495"/>
</g>
<g style="fill:rgb(255,255,255); fill-opacity:1.0; stroke-linejoin: miter">
<path d="M597.1662,643.1302L597.1662,643.1319L321.10257,919.4046Q504.6706,872.4095,688.2388,825.41437L597.1662,643.1302"/>
</g>
</g>
</svg>